0
SECTION
2
HEADER
0
ENDSEC
0
SECTION
  2
TABLES
  0
TABLE
  2
VPORT
  70
0
  0
ENDTAB
  0
TABLE
  2
LTYPE
 70
     1
  0
LTYPE
  2
CONTINUOUS
 70
    64
  3
Solid Line
 72
    65
 73
     0
 40
0.0
  0
ENDTAB
  0
TABLE
  2
LAYER
  70
      1
  0
LAYER
  2

  70
0
  62
15
  6
CONTINUOUS
  0
ENDTAB
  0
ENDSEC
  0
SECTION
  2
ENTITIES
  0
3DFACE
  8

  10
6500
  20
1000
  30
3750
  11
6500
  21
1000
  31
3000
  12
5750
  22
200
  32
3000
  13
5750
  23
200
  33
3750
  0
3DFACE
  8

  10
6500
  20
1000
  30
3750
  11
5750
  21
200
  31
3750
  12
5750
  22
0
  32
3750
  13
6500
  23
0
  33
3750
  0
3DFACE
  8

  10
5750
  20
200
  30
3000
  11
6500
  21
1000
  31
3000
  12
6500
  22
0
  32
3000
  13
5750
  23
0
  33
3000
  0
3DFACE
  8

  10
5750
  20
200
  30
3750
  11
5750
  21
200
  31
3000
  12
5750
  22
0
  32
3000
  13
5750
  23
0
  33
3750
  0
3DFACE
  8

  10
3187.5
  20
600
  30
4937.5
  11
3062.5
  21
600
  31
4937.5
  12
3062.5
  22
0
  32
4937.5
  13
3187.5
  23
0
  33
4937.5
  0
3DFACE
  8

  10
3187.5
  20
600
  30
4812.5
  11
3187.5
  21
600
  31
4937.5
  12
3187.5
  22
0
  32
4937.5
  13
3187.5
  23
0
  33
4812.5
  0
3DFACE
  8

  10
3062.5
  20
600
  30
4812.5
  11
3187.5
  21
600
  31
4812.5
  12
3187.5
  22
200
  32
4812.5
  13
3062.5
  23
200
  33
4812.5
  0
3DFACE
  8

  10
3062.5
  20
600
  30
4937.5
  11
3062.5
  21
600
  31
4812.5
  12
3062.5
  22
200
  32
4812.5
  13
3062.5
  23
200
  33
4937.5
  0
3DFACE
  8

  10
2750
  20
200
  30
4500
  11
2750
  21
200
  31
5250
  12
3500
  22
200
  32
5250
  13
3500
  23
200
  33
4500
  0
3DFACE
  8

  10
2750
  20
200
  30
4500
  11
3500
  21
200
  31
4500
  12
3500
  22
0
  32
4500
  13
2750
  23
0
  33
4500
  0
3DFACE
  8

  10
3500
  20
200
  30
4500
  11
3500
  21
200
  31
5250
  12
3500
  22
0
  32
5250
  13
3500
  23
0
  33
4500
  0
3DFACE
  8

  10
3500
  20
200
  30
5250
  11
2750
  21
200
  31
5250
  12
2750
  22
0
  32
5250
  13
3500
  23
0
  33
5250
  0
3DFACE
  8

  10
2750
  20
200
  30
5250
  11
2750
  21
200
  31
4500
  12
2750
  22
0
  32
4500
  13
2750
  23
0
  33
5250
  0
3DFACE
  8

  10
1250
  20
1000
  30
-750
  11
500
  21
1000
  31
-750
  12
500
  22
0
  32
-750
  13
1250
  23
0
  33
-750
  0
3DFACE
  8

  10
500
  20
1000
  30
-750
  11
-500
  21
1000
  31
-750
  12
-500
  22
0
  32
-750
  13
500
  23
0
  33
-750
  0
3DFACE
  8

  10
-1250
  20
1000
  30
-750
  11
-2000
  21
1000
  31
-750
  12
-2000
  22
0
  32
-750
  13
-1250
  23
0
  33
-750
  0
3DFACE
  8

  10
-500
  20
1000
  30
-750
  11
-1250
  21
1000
  31
-750
  12
-1250
  22
0
  32
-750
  13
-500
  23
0
  33
-750
  0
3DFACE
  8

  10
2750
  20
1000
  30
-750
  11
2000
  21
1000
  31
-750
  12
2000
  22
0
  32
-750
  13
2750
  23
0
  33
-750
  0
3DFACE
  8

  10
2000
  20
1000
  30
-750
  11
1250
  21
1000
  31
-750
  12
1250
  22
0
  32
-750
  13
2000
  23
0
  33
-750
  0
3DFACE
  8

  10
3500
  20
1000
  30
2250
  11
2750
  21
1000
  31
2250
  12
2750
  22
0
  32
2250
  13
3500
  23
0
  33
2250
  0
3DFACE
  8

  10
5000
  20
1000
  30
2250
  11
4250
  21
1000
  31
2250
  12
4250
  22
0
  32
2250
  13
5000
  23
0
  33
2250
  0
3DFACE
  8

  10
4250
  20
1000
  30
2250
  11
3500
  21
1000
  31
2250
  12
3500
  22
0
  32
2250
  13
4250
  23
0
  33
2250
  0
3DFACE
  8

  10
5750
  20
1000
  30
2250
  11
5000
  21
1000
  31
2250
  12
5000
  22
0
  32
2250
  13
5750
  23
0
  33
2250
  0
3DFACE
  8

  10
6500
  20
1000
  30
2250
  11
5750
  21
1000
  31
2250
  12
5750
  22
0
  32
2250
  13
6500
  23
0
  33
2250
  0
3DFACE
  8

  10
2750
  20
1000
  30
2250
  11
2750
  21
1000
  31
1500
  12
2750
  22
0
  32
1500
  13
2750
  23
0
  33
2250
  0
3DFACE
  8

  10
2750
  20
1000
  30
1500
  11
2750
  21
1000
  31
750
  12
2750
  22
0
  32
750
  13
2750
  23
0
  33
1500
  0
3DFACE
  8

  10
2750
  20
1000
  30
0
  11
2750
  21
1000
  31
-750
  12
2750
  22
0
  32
-750
  13
2750
  23
0
  33
0
  0
3DFACE
  8

  10
2750
  20
1000
  30
750
  11
2750
  21
1000
  31
0
  12
2750
  22
0
  32
0
  13
2750
  23
0
  33
750
  0
3DFACE
  8

  10
6500
  20
1000
  30
3000
  11
6500
  21
1000
  31
2250
  12
6500
  22
0
  32
2250
  13
6500
  23
0
  33
3000
  0
3DFACE
  8

  10
6500
  20
1000
  30
6000
  11
6500
  21
1000
  31
5250
  12
6500
  22
0
  32
5250
  13
6500
  23
0
  33
6000
  0
3DFACE
  8

  10
6500
  20
1000
  30
5250
  11
6500
  21
1000
  31
4500
  12
6500
  22
0
  32
4500
  13
6500
  23
0
  33
5250
  0
3DFACE
  8

  10
6500
  20
1000
  30
4500
  11
6500
  21
1000
  31
3750
  12
6500
  22
0
  32
3750
  13
6500
  23
0
  33
4500
  0
3DFACE
  8

  10
500
  20
1000
  30
4500
  11
1250
  21
1000
  31
4500
  12
1250
  22
0
  32
4500
  13
500
  23
0
  33
4500
  0
3DFACE
  8

  10
1250
  20
1000
  30
4500
  11
2000
  21
1000
  31
4500
  12
2000
  22
0
  32
4500
  13
1250
  23
0
  33
4500
  0
3DFACE
  8

  10
5750
  20
1000
  30
6000
  11
6500
  21
1000
  31
6000
  12
6500
  22
0
  32
6000
  13
5750
  23
0
  33
6000
  0
3DFACE
  8

  10
5000
  20
1000
  30
6000
  11
5750
  21
1000
  31
6000
  12
5750
  22
0
  32
6000
  13
5000
  23
0
  33
6000
  0
3DFACE
  8

  10
4250
  20
1000
  30
6000
  11
5000
  21
1000
  31
6000
  12
5000
  22
0
  32
6000
  13
4250
  23
0
  33
6000
  0
3DFACE
  8

  10
3500
  20
1000
  30
6000
  11
4250
  21
1000
  31
6000
  12
4250
  22
0
  32
6000
  13
3500
  23
0
  33
6000
  0
3DFACE
  8

  10
2000
  20
1000
  30
6000
  11
2750
  21
1000
  31
6000
  12
2750
  22
0
  32
6000
  13
2000
  23
0
  33
6000
  0
3DFACE
  8

  10
2750
  20
1000
  30
6000
  11
3500
  21
1000
  31
6000
  12
3500
  22
0
  32
6000
  13
2750
  23
0
  33
6000
  0
3DFACE
  8

  10
-1250
  20
1000
  30
4500
  11
-500
  21
1000
  31
4500
  12
-500
  22
0
  32
4500
  13
-1250
  23
0
  33
4500
  0
3DFACE
  8

  10
-2000
  20
1000
  30
4500
  11
-1250
  21
1000
  31
4500
  12
-1250
  22
0
  32
4500
  13
-2000
  23
0
  33
4500
  0
3DFACE
  8

  10
-2000
  20
1000
  30
750
  11
-2000
  21
1000
  31
1500
  12
-2000
  22
0
  32
1500
  13
-2000
  23
0
  33
750
  0
3DFACE
  8

  10
-2000
  20
1000
  30
-750
  11
-2000
  21
1000
  31
0
  12
-2000
  22
0
  32
0
  13
-2000
  23
0
  33
-750
  0
3DFACE
  8

  10
-2000
  20
1000
  30
0
  11
-2000
  21
1000
  31
750
  12
-2000
  22
0
  32
750
  13
-2000
  23
0
  33
0
  0
3DFACE
  8

  10
-2000
  20
1000
  30
2250
  11
-2000
  21
1000
  31
3000
  12
-2000
  22
0
  32
3000
  13
-2000
  23
0
  33
2250
  0
3DFACE
  8

  10
-2000
  20
1000
  30
1500
  11
-2000
  21
1000
  31
2250
  12
-2000
  22
0
  32
2250
  13
-2000
  23
0
  33
1500
  0
3DFACE
  8

  10
-2000
  20
1000
  30
3000
  11
-2000
  21
1000
  31
3750
  12
-2000
  22
0
  32
3750
  13
-2000
  23
0
  33
3000
  0
3DFACE
  8

  10
-2000
  20
1000
  30
3750
  11
-2000
  21
1000
  31
4500
  12
-2000
  22
0
  32
4500
  13
-2000
  23
0
  33
3750
  0
3DFACE
  8

  10
2000
  20
1000
  30
4500
  11
2000
  21
1000
  31
5250
  12
2000
  22
0
  32
5250
  13
2000
  23
0
  33
4500
  0
3DFACE
  8

  10
2000
  20
1000
  30
5250
  11
2000
  21
1000
  31
6000
  12
2000
  22
0
  32
6000
  13
2000
  23
0
  33
5250
  0
3DFACE
  8

  10
500
  20
1000
  30
3750
  11
500
  21
1000
  31
4500
  12
500
  22
0
  32
4500
  13
500
  23
0
  33
3750
  0
3DFACE
  8

  10
-500
  20
1000
  30
4500
  11
-500
  21
1000
  31
3750
  12
-500
  22
0
  32
3750
  13
-500
  23
0
  33
4500
  0
3DFACE
  8

  10
-500
  20
1000
  30
3750
  11
500
  21
1000
  31
3750
  12
500
  22
0
  32
3750
  13
-500
  23
0
  33
3750
  0
3DFACE
  8

  10
2750
  20
0
  30
750
  11
2750
  21
0
  31
0
  12
2000
  22
0
  32
0
  13
2000
  23
0
  33
750
  0
3DFACE
  8

  10
2000
  20
0
  30
1500
  11
2750
  21
0
  31
1500
  12
2750
  22
0
  32
750
  13
2000
  23
0
  33
750
  0
3DFACE
  8

  10
2000
  20
0
  30
2250
  11
2750
  21
0
  31
2250
  12
2750
  22
0
  32
1500
  13
2000
  23
0
  33
1500
  0
3DFACE
  8

  10
2750
  20
0
  30
0
  11
2750
  21
0
  31
-750
  12
2000
  22
0
  32
-750
  13
2000
  23
0
  33
0
  0
3DFACE
  8

  10
5000
  20
0
  30
4500
  11
5750
  21
0
  31
4500
  12
5750
  22
0
  32
3750
  13
5000
  23
0
  33
3750
  0
3DFACE
  8

  10
5750
  20
0
  30
3750
  11
5750
  21
0
  31
3000
  12
5000
  22
0
  32
3000
  13
5000
  23
0
  33
3750
  0
3DFACE
  8

  10
5750
  20
0
  30
3000
  11
5750
  21
0
  31
2250
  12
5000
  22
0
  32
2250
  13
5000
  23
0
  33
3000
  0
3DFACE
  8

  10
6500
  20
0
  30
3000
  11
6500
  21
0
  31
2250
  12
5750
  22
0
  32
2250
  13
5750
  23
0
  33
3000
  0
3DFACE
  8

  10
5750
  20
0
  30
4500
  11
6500
  21
0
  31
4500
  12
6500
  22
0
  32
3750
  13
5750
  23
0
  33
3750
  0
3DFACE
  8

  10
5750
  20
0
  30
6000
  11
6500
  21
0
  31
6000
  12
6500
  22
0
  32
5250
  13
5750
  23
0
  33
5250
  0
3DFACE
  8

  10
6500
  20
0
  30
5250
  11
6500
  21
0
  31
4500
  12
5750
  22
0
  32
4500
  13
5750
  23
0
  33
5250
  0
3DFACE
  8

  10
5750
  20
0
  30
5250
  11
5750
  21
0
  31
4500
  12
5000
  22
0
  32
4500
  13
5000
  23
0
  33
5250
  0
3DFACE
  8

  10
5000
  20
0
  30
6000
  11
5750
  21
0
  31
6000
  12
5750
  22
0
  32
5250
  13
5000
  23
0
  33
5250
  0
3DFACE
  8

  10
2750
  20
0
  30
6000
  11
3500
  21
0
  31
6000
  12
3500
  22
0
  32
5250
  13
2750
  23
0
  33
5250
  0
3DFACE
  8

  10
2750
  20
0
  30
5250
  11
2750
  21
0
  31
4500
  12
2000
  22
0
  32
4500
  13
2000
  23
0
  33
5250
  0
3DFACE
  8

  10
2000
  20
0
  30
6000
  11
2750
  21
0
  31
6000
  12
2750
  22
0
  32
5250
  13
2000
  23
0
  33
5250
  0
3DFACE
  8

  10
3500
  20
0
  30
6000
  11
4250
  21
0
  31
6000
  12
4250
  22
0
  32
5250
  13
3500
  23
0
  33
5250
  0
3DFACE
  8

  10
4250
  20
0
  30
5250
  11
4250
  21
0
  31
4500
  12
3500
  22
0
  32
4500
  13
3500
  23
0
  33
5250
  0
3DFACE
  8

  10
5000
  20
0
  30
5250
  11
5000
  21
0
  31
4500
  12
4250
  22
0
  32
4500
  13
4250
  23
0
  33
5250
  0
3DFACE
  8

  10
4250
  20
0
  30
6000
  11
5000
  21
0
  31
6000
  12
5000
  22
0
  32
5250
  13
4250
  23
0
  33
5250
  0
3DFACE
  8

  10
4250
  20
0
  30
4500
  11
5000
  21
0
  31
4500
  12
5000
  22
0
  32
3750
  13
4250
  23
0
  33
3750
  0
3DFACE
  8

  10
5000
  20
0
  30
3750
  11
5000
  21
0
  31
3000
  12
4250
  22
0
  32
3000
  13
4250
  23
0
  33
3750
  0
3DFACE
  8

  10
5000
  20
0
  30
3000
  11
5000
  21
0
  31
2250
  12
4250
  22
0
  32
2250
  13
4250
  23
0
  33
3000
  0
3DFACE
  8

  10
4250
  20
0
  30
3000
  11
4250
  21
0
  31
2250
  12
3500
  22
0
  32
2250
  13
3500
  23
0
  33
3000
  0
3DFACE
  8

  10
4250
  20
0
  30
3750
  11
4250
  21
0
  31
3000
  12
3500
  22
0
  32
3000
  13
3500
  23
0
  33
3750
  0
3DFACE
  8

  10
3500
  20
0
  30
4500
  11
4250
  21
0
  31
4500
  12
4250
  22
0
  32
3750
  13
3500
  23
0
  33
3750
  0
3DFACE
  8

  10
2000
  20
0
  30
4500
  11
2750
  21
0
  31
4500
  12
2750
  22
0
  32
3750
  13
2000
  23
0
  33
3750
  0
3DFACE
  8

  10
2750
  20
0
  30
3750
  11
2750
  21
0
  31
3000
  12
2000
  22
0
  32
3000
  13
2000
  23
0
  33
3750
  0
3DFACE
  8

  10
2750
  20
0
  30
3000
  11
2750
  21
0
  31
2250
  12
2000
  22
0
  32
2250
  13
2000
  23
0
  33
3000
  0
3DFACE
  8

  10
3500
  20
0
  30
3000
  11
3500
  21
0
  31
2250
  12
2750
  22
0
  32
2250
  13
2750
  23
0
  33
3000
  0
3DFACE
  8

  10
3500
  20
0
  30
3750
  11
3500
  21
0
  31
3000
  12
2750
  22
0
  32
3000
  13
2750
  23
0
  33
3750
  0
3DFACE
  8

  10
2750
  20
0
  30
4500
  11
3500
  21
0
  31
4500
  12
3500
  22
0
  32
3750
  13
2750
  23
0
  33
3750
  0
3DFACE
  8

  10
-500
  20
0
  30
0
  11
-500
  21
0
  31
-750
  12
-1250
  22
0
  32
-750
  13
-1250
  23
0
  33
0
  0
3DFACE
  8

  10
500
  20
0
  30
0
  11
500
  21
0
  31
-750
  12
-500
  22
0
  32
-750
  13
-500
  23
0
  33
0
  0
3DFACE
  8

  10
1250
  20
0
  30
0
  11
1250
  21
0
  31
-750
  12
500
  22
0
  32
-750
  13
500
  23
0
  33
0
  0
3DFACE
  8

  10
-1250
  20
0
  30
0
  11
-1250
  21
0
  31
-750
  12
-2000
  22
0
  32
-750
  13
-2000
  23
0
  33
0
  0
3DFACE
  8

  10
2000
  20
0
  30
0
  11
2000
  21
0
  31
-750
  12
1250
  22
0
  32
-750
  13
1250
  23
0
  33
0
  0
3DFACE
  8

  10
500
  20
0
  30
3750
  11
500
  21
0
  31
3000
  12
-500
  22
0
  32
3000
  13
-500
  23
0
  33
3750
  0
3DFACE
  8

  10
500
  20
0
  30
3000
  11
500
  21
0
  31
2250
  12
-500
  22
0
  32
2250
  13
-500
  23
0
  33
3000
  0
3DFACE
  8

  10
500
  20
0
  30
4500
  11
1250
  21
0
  31
4500
  12
1250
  22
0
  32
3750
  13
500
  23
0
  33
3750
  0
3DFACE
  8

  10
500
  20
0
  30
3750
  11
1250
  21
0
  31
3750
  12
1250
  22
0
  32
3000
  13
500
  23
0
  33
3000
  0
3DFACE
  8

  10
1250
  20
0
  30
3000
  11
1250
  21
0
  31
2250
  12
500
  22
0
  32
2250
  13
500
  23
0
  33
3000
  0
3DFACE
  8

  10
2000
  20
0
  30
3000
  11
2000
  21
0
  31
2250
  12
1250
  22
0
  32
2250
  13
1250
  23
0
  33
3000
  0
3DFACE
  8

  10
1250
  20
0
  30
3750
  11
2000
  21
0
  31
3750
  12
2000
  22
0
  32
3000
  13
1250
  23
0
  33
3000
  0
3DFACE
  8

  10
1250
  20
0
  30
4500
  11
2000
  21
0
  31
4500
  12
2000
  22
0
  32
3750
  13
1250
  23
0
  33
3750
  0
3DFACE
  8

  10
1250
  20
0
  30
2250
  11
2000
  21
0
  31
2250
  12
2000
  22
0
  32
1500
  13
1250
  23
0
  33
1500
  0
3DFACE
  8

  10
1250
  20
0
  30
1500
  11
2000
  21
0
  31
1500
  12
2000
  22
0
  32
750
  13
1250
  23
0
  33
750
  0
3DFACE
  8

  10
2000
  20
0
  30
750
  11
2000
  21
0
  31
0
  12
1250
  22
0
  32
0
  13
1250
  23
0
  33
750
  0
3DFACE
  8

  10
-1250
  20
0
  30
4500
  11
-500
  21
0
  31
4500
  12
-500
  22
0
  32
3750
  13
-1250
  23
0
  33
3750
  0
3DFACE
  8

  10
-500
  20
0
  30
3750
  11
-500
  21
0
  31
3000
  12
-1250
  22
0
  32
3000
  13
-1250
  23
0
  33
3750
  0
3DFACE
  8

  10
-500
  20
0
  30
3000
  11
-500
  21
0
  31
2250
  12
-1250
  22
0
  32
2250
  13
-1250
  23
0
  33
3000
  0
3DFACE
  8

  10
-1250
  20
0
  30
3000
  11
-1250
  21
0
  31
2250
  12
-2000
  22
0
  32
2250
  13
-2000
  23
0
  33
3000
  0
3DFACE
  8

  10
-1250
  20
0
  30
3750
  11
-1250
  21
0
  31
3000
  12
-2000
  22
0
  32
3000
  13
-2000
  23
0
  33
3750
  0
3DFACE
  8

  10
-2000
  20
0
  30
4500
  11
-1250
  21
0
  31
4500
  12
-1250
  22
0
  32
3750
  13
-2000
  23
0
  33
3750
  0
3DFACE
  8

  10
-2000
  20
0
  30
2250
  11
-1250
  21
0
  31
2250
  12
-1250
  22
0
  32
1500
  13
-2000
  23
0
  33
1500
  0
3DFACE
  8

  10
-1250
  20
0
  30
1500
  11
-1250
  21
0
  31
750
  12
-2000
  22
0
  32
750
  13
-2000
  23
0
  33
1500
  0
3DFACE
  8

  10
-1250
  20
0
  30
750
  11
-1250
  21
0
  31
0
  12
-2000
  22
0
  32
0
  13
-2000
  23
0
  33
750
  0
3DFACE
  8

  10
1250
  20
0
  30
750
  11
1250
  21
0
  31
0
  12
500
  22
0
  32
0
  13
500
  23
0
  33
750
  0
3DFACE
  8

  10
500
  20
0
  30
750
  11
500
  21
0
  31
0
  12
-500
  22
0
  32
0
  13
-500
  23
0
  33
750
  0
3DFACE
  8

  10
-500
  20
0
  30
750
  11
-500
  21
0
  31
0
  12
-1250
  22
0
  32
0
  13
-1250
  23
0
  33
750
  0
3DFACE
  8

  10
-500
  20
0
  30
1500
  11
-500
  21
0
  31
750
  12
-1250
  22
0
  32
750
  13
-1250
  23
0
  33
1500
  0
3DFACE
  8

  10
500
  20
0
  30
1500
  11
1250
  21
0
  31
1500
  12
1250
  22
0
  32
750
  13
500
  23
0
  33
750
  0
3DFACE
  8

  10
500
  20
0
  30
2250
  11
1250
  21
0
  31
2250
  12
1250
  22
0
  32
1500
  13
500
  23
0
  33
1500
  0
3DFACE
  8

  10
-1250
  20
0
  30
2250
  11
-500
  21
0
  31
2250
  12
-500
  22
0
  32
1500
  13
-1250
  23
0
  33
1500
  0
3DFACE
  8

  10
-500
  20
0
  30
2250
  11
-250
  21
0
  31
2250
  12
-250
  22
0
  32
2000
  13
-500
  23
0
  33
1750
  0
3DFACE
  8

  10
250
  20
0
  30
2250
  11
500
  21
0
  31
2250
  12
500
  22
0
  32
1750
  13
250
  23
0
  33
2000
  0
3DFACE
  8

  10
-250
  20
0
  30
2000
  11
-250
  21
0
  31
2250
  12
250
  22
0
  32
2250
  13
250
  23
0
  33
2000
  0
3DFACE
  8

  10
-250
  20
0
  30
1000
  11
250
  21
0
  31
1000
  12
250
  22
0
  32
750
  13
-250
  23
0
  33
750
  0
3DFACE
  8

  10
500
  20
0
  30
1250
  11
500
  21
0
  31
750
  12
250
  22
0
  32
750
  13
250
  23
0
  33
1000
  0
3DFACE
  8

  10
-500
  20
0
  30
1250
  11
-250
  21
0
  31
1000
  12
-250
  22
0
  32
750
  13
-500
  23
0
  33
750
  0
3DFACE
  8

  10
-500
  20
0
  30
1250
  11
-500
  21
0
  31
1750
  12
-500
  22
-100
  32
1750
  13
-500
  23
-100
  33
1250
  0
3DFACE
  8

  10
-250
  20
0
  30
1000
  11
-500
  21
0
  31
1250
  12
-500
  22
-100
  32
1250
  13
-250
  23
-100
  33
1000
  0
3DFACE
  8

  10
250
  20
0
  30
1000
  11
-250
  21
0
  31
1000
  12
-250
  22
-100
  32
1000
  13
250
  23
-100
  33
1000
  0
3DFACE
  8

  10
500
  20
0
  30
1250
  11
250
  21
0
  31
1000
  12
250
  22
-100
  32
1000
  13
500
  23
-100
  33
1250
  0
3DFACE
  8

  10
500
  20
0
  30
1750
  11
500
  21
0
  31
1250
  12
500
  22
-100
  32
1250
  13
500
  23
-100
  33
1750
  0
3DFACE
  8

  10
250
  20
0
  30
2000
  11
500
  21
0
  31
1750
  12
500
  22
-100
  32
1750
  13
250
  23
-100
  33
2000
  0
3DFACE
  8

  10
-250
  20
0
  30
2000
  11
250
  21
0
  31
2000
  12
250
  22
-100
  32
2000
  13
-250
  23
-100
  33
2000
  0
3DFACE
  8

  10
-500
  20
0
  30
1750
  11
-250
  21
0
  31
2000
  12
-250
  22
-100
  32
2000
  13
-500
  23
-100
  33
1750
  0
3DFACE
  8

  10
500
  20
-100
  30
1250
  11
250
  21
-100
  31
1000
  12
-250
  22
-100
  32
1000
  13
-500
  23
-100
  33
1250
  0
3DFACE
  8

  10
500
  20
-100
  30
1750
  11
500
  21
-100
  31
1250
  12
-500
  22
-100
  32
1250
  13
-500
  23
-100
  33
1750
  0
3DFACE
  8

  10
-500
  20
-100
  30
1750
  11
-250
  21
-100
  31
2000
  12
250
  22
-100
  32
2000
  13
500
  23
-100
  33
1750
  0
ENDSEC
  0
EOF
